<?xml version="1.0" encoding="utf-8"?>
<!-- Generator: Adobe Illustrator 24.1.1, SVG Export Plug-In . SVG Version: 6.00 Build 0)  -->
<svg version="1.1" id="Capa_1" xmlns="http://www.w3.org/2000/svg" xmlns:xlink="http://www.w3.org/1999/xlink" x="0px" y="0px"
	 viewBox="0 0 20.4 19.4" style="enable-background:new 0 0 20.4 19.4;" xml:space="preserve">
<style type="text/css">
	.st0{fill:none;}
	.st1{fill:#FFFFFF;}
</style>
<path class="st0" d="M-1.8-1.8h24v24h-24V-1.8z"/>
<path class="st0" d="M26.5-5.1h24v24h-24V-5.1z"/>
<path class="st1" d="M18.2,4.2h-4v-2c0-1.1-0.9-2-2-2h-4c-1.1,0-2,0.9-2,2v2h-4c-1.1,0-2,0.9-2,2l0,11c0,1.1,0.9,2,2,2h16
	c1.1,0,2-0.9,2-2v-11C20.2,5.1,19.3,4.2,18.2,4.2z M8.2,2.2h4v2h-4V2.2z M11.9,10.7l-8,7.1l3.7-5.2H5.8l4.5-6.8h6.2l-7,4.9H11.9z"/>
</svg>
