<svg xmlns="http://www.w3.org/2000/svg" xmlns:xlink="http://www.w3.org/1999/xlink" width="95" height="30" viewBox="0 0 95 30">
    <defs>
        <path id="omnrxk9dga" d="M0.112 0.151L25.242 0.151 25.242 25.806 0.112 25.806z"/>
    </defs>
    <g fill="none" fill-rule="evenodd">
        <path fill="#FEFEFE" d="M91.285 16.936c0 .179-.148.324-.33.324H78.048c-.183 0-.331-.145-.331-.324V9.172c0-.179.148-.323.33-.323h1.255c0-.006-.003-.01-.003-.015 0-.107.086-.193.193-.193h.943c.106 0 .193.086.193.193l-.003.015h7.753c0-.006-.003-.01-.003-.015 0-.107.086-.193.193-.193h.942c.107 0 .194.086.194.193 0 .005-.003.01-.004.015h1.255c.182 0 .33.144.33.323v7.764zm-9.161-9.783c0-.4.323-.722.721-.722h3.216c.398 0 .722.323.722.722v1.323h-.65V7.459c0-.21-.17-.381-.38-.381h-2.6c-.21 0-.38.17-.38.381v1.017h-.65V7.153zm2.843-5.627c-5.469 0-9.902 4.433-9.902 9.902v9.902h9.902c5.469 0 9.902-4.434 9.902-9.902 0-5.469-4.433-9.902-9.902-9.902zM14.051 4.1c-.26-.22-.62-.428-1.07-.618-.442-.186-.972-.342-1.577-.464-.606-.123-1.276-.185-1.992-.185-1.043 0-2.013.142-2.883.423-.87.28-1.664.672-2.359 1.163-.694.492-1.31 1.078-1.832 1.744-.518.661-.956 1.384-1.3 2.149-.345.764-.607 1.573-.78 2.404-.171.83-.258 1.67-.258 2.495 0 1.163.127 2.204.377 3.095.25.894.596 1.682 1.028 2.345.434.665.951 1.23 1.538 1.675.581.442 1.207.802 1.86 1.069.651.267 1.331.459 2.021.57.684.111 1.364.167 2.02.167.48 0 .95-.026 1.396-.08.443-.052.857-.12 1.23-.202.376-.083.71-.172.99-.265.292-.096.515-.185.673-.267.151-.072.273-.145.373-.224.113-.088.204-.194.272-.315.065-.117.111-.258.137-.417.023-.14.037-.306.043-.508.015-.476.033-.942.054-1.398.02-.457.04-.885.055-1.282l.043-1.079c.013-.33.02-.596.02-.813 0-.418-.084-.717-.254-.912-.178-.205-.454-.309-.82-.309-.063 0-.218.003-.465.008-.244.005-.534.011-.869.02-.334.007-.693.014-1.076.019-.382.005-.745.007-1.086.007h-.514c-.062 0-.131-.002-.208-.007l-.327-.02.097 1.356h.267c.133 0 .245 0 .336-.004.085-.003.16-.004.225-.004h.381c.389 0 .71.012.955.034.2.018.351.065.45.14.09.066.152.171.19.322.048.191.073.47.073.83v.7c0 .363-.007.732-.02 1.1-.012.366-.039.703-.08 1.007-.015.128-.06.246-.137.363-.075.113-.194.216-.355.304-.176.097-.412.176-.704.235-.302.06-.682.092-1.127.092-.561 0-1.113-.067-1.64-.198-.522-.13-1.02-.334-1.48-.607-.458-.272-.884-.623-1.266-1.044-.381-.42-.715-.93-.992-1.515-.28-.588-.5-1.272-.656-2.033-.156-.763-.236-1.63-.236-2.578 0-.683.054-1.37.16-2.042.106-.669.27-1.315.489-1.921.217-.602.495-1.167.824-1.679.326-.506.716-.95 1.158-1.321.44-.37.946-.662 1.504-.87.558-.208 1.19-.314 1.878-.314.398 0 .794.037 1.177.108.379.072.737.181 1.063.325.33.143.634.321.907.53.27.204.505.446.7.715.178.253.302.529.366.82.068.31.105.637.11.969 0 .07-.001.136-.004.199-.002.064-.006.132-.011.202l-.021.3 1.256.028.015-.278c.04-.81.076-1.5.105-2.071.028-.575.043-1.049.043-1.409 0-.262-.15-.516-.46-.78M69.779 13.069c-.027.062-.032.132-.012.197l.023.079c.029.093.103.166.197.193.262.073.518.111.768.111h.001c.276-.006.518-.061.717-.164.196-.1.357-.23.481-.382.122-.151.21-.316.262-.492.05-.165.074-.324.074-.47 0-.368-.098-.704-.292-.998-.185-.283-.437-.526-.75-.72-.301-.19-.657-.336-1.057-.434-.693-.17-1.472-.194-2.29-.05-.357.062-.708.159-1.045.286-.34.13-.663.292-.96.483-.304.195-.575.426-.807.685-.235.264-.424.565-.56.894-.139.336-.21.705-.21 1.1 0 .363.055.7.161 1.001.106.3.254.575.44.819.181.237.396.457.64.653.234.189.49.366.76.528.27.162.55.312.83.445l.828.393c.31.15.609.297.895.441.27.137.51.287.711.445.19.15.344.317.456.495.102.163.151.35.151.572 0 .216-.047.403-.145.574-.103.178-.235.325-.405.447-.176.126-.382.224-.614.293-.496.145-1.048.138-1.589-.017-.277-.079-.531-.2-.757-.362-.222-.159-.412-.366-.564-.617-.15-.246-.243-.548-.275-.897-.007-.073-.042-.141-.097-.19l-.062-.054c-.054-.047-.125-.07-.197-.07-.202.005-.402.033-.595.082-.202.05-.388.13-.554.234-.178.112-.323.259-.43.436-.114.185-.171.408-.171.663 0 .281.066.543.195.78.122.224.29.43.5.61.2.172.438.326.706.46.259.127.537.236.827.324.288.087.59.153.895.196.303.043.604.065.893.065.575 0 1.138-.078 1.672-.233.542-.157 1.029-.39 1.447-.693.426-.308.772-.692 1.028-1.142.26-.457.391-.984.391-1.566 0-.495-.108-.935-.322-1.307-.206-.358-.478-.679-.81-.954-.321-.267-.69-.508-1.095-.715-.397-.204-.795-.4-1.184-.585-.345-.162-.684-.328-1.008-.494-.307-.157-.582-.328-.817-.506-.223-.17-.402-.356-.535-.555-.12-.179-.178-.377-.178-.608 0-.178.042-.347.128-.515.088-.171.218-.328.387-.465.171-.141.389-.257.646-.344.259-.088.56-.133.896-.133.188 0 .38.022.575.064.184.04.353.104.503.193.142.083.257.188.352.32.083.117.125.261.13.437 0 .098-.014.208-.04.327-.027.12-.074.257-.14.407M48.47 16.727c-.032.349-.089.708-.169 1.066-.08.355-.187.704-.318 1.036-.127.32-.288.608-.481.855-.186.24-.41.433-.663.577-.243.138-.532.208-.859.208-.307 0-.59-.055-.84-.163-.257-.111-.49-.265-.696-.46-.21-.198-.394-.434-.547-.7-.16-.277-.294-.578-.402-.896-.108-.32-.19-.657-.24-1.002-.053-.347-.08-.694-.08-1.032 0-.291.017-.619.05-.974.032-.351.09-.71.17-1.065.079-.353.186-.7.317-1.032.127-.32.289-.609.481-.856.186-.238.409-.43.661-.572.244-.136.534-.205.861-.205.307 0 .59.055.84.163.257.111.492.265.697.457.21.196.394.43.547.697.159.276.294.576.401.891.108.316.19.65.242.994.052.345.078.693.078 1.035 0 .296-.017.624-.05.978m1.375-5.243c-.37-.49-.835-.889-1.38-1.187-.55-.303-1.19-.456-1.9-.456-.625 0-1.213.103-1.746.307-.528.201-1.016.48-1.449.83-.429.349-.812.76-1.14 1.222-.324.46-.6.957-.82 1.48-.219.52-.387 1.066-.5 1.623-.112.555-.168 1.111-.168 1.653 0 .638.094 1.271.28 1.882.189.617.468 1.174.832 1.658.368.49.832.89 1.376 1.189.552.302 1.192.455 1.901.455.624 0 1.211-.103 1.745-.307.53-.201 1.017-.48 1.449-.83.428-.348.812-.759 1.14-1.222.325-.459.602-.956.824-1.479.222-.522.392-1.069.504-1.624.112-.555.169-1.111.169-1.653 0-.638-.095-1.272-.281-1.883-.188-.615-.47-1.173-.836-1.658M60.173 17.506c-.19.685-.45 1.27-.774 1.74-.316.46-.689.815-1.108 1.055-.414.235-.86.355-1.326.355-.283 0-.554-.044-.805-.131-.251-.088-.483-.216-.687-.379-.204-.162-.381-.363-.527-.596-.14-.226-.248-.481-.318-.758.004-.145.038-.341.1-.586.069-.274.169-.587.298-.93.13-.347.287-.716.466-1.097.179-.382.384-.765.609-1.139.226-.375.47-.737.726-1.076.253-.335.521-.634.796-.89.267-.247.546-.447.831-.593.267-.137.539-.206.808-.206.193 0 .347.065.483.205.162.166.295.385.398.65.108.283.19.604.24.955.053.36.08.713.08 1.049 0 .883-.098 1.68-.29 2.372m2.527-5.057c-.088-.331-.204-.652-.345-.952-.146-.313-.333-.594-.554-.835-.227-.247-.497-.447-.803-.595-.314-.15-.675-.226-1.074-.226-.473 0-.977.145-1.498.432-.504.278-1.016.692-1.522 1.23-.5.533-.997 1.198-1.476 1.978-.283.46-.557.967-.82 1.514.02-.377.042-.76.066-1.148.051-.855.113-1.734.182-2.61.07-.893.149-1.802.233-2.702.086-.913.174-1.821.265-2.724.089-.887.184-1.787.284-2.675.098-.882.197-1.738.295-2.568l.024-.203-.183-.089c-.542-.262-1.054-.332-1.576-.233-.164.03-.313.08-.445.145-.145.073-.269.172-.368.296-.112.14-.172.305-.18.484-.035.582-.075 1.25-.116 2.003l-.132 2.39c-.047.842-.094 1.708-.14 2.598-.047.89-.092 1.763-.133 2.614l-.12 2.429c-.04.769-.072 1.455-.098 2.055-.073 1.4-.177 2.665-.31 3.76-.132 1.088-.339 2.03-.616 2.8l-.107.298.879.22.115-.127c.172-.189.357-.437.551-.739.128-.2.256-.438.381-.71.151.178.313.342.484.488.292.252.607.46.937.62.327.16.668.28 1.012.357.343.077.69.116 1.033.116.508 0 1.022-.081 1.528-.243.502-.161.985-.4 1.437-.71.45-.309.872-.693 1.255-1.14.382-.448.718-.964.997-1.536.278-.57.5-1.21.656-1.9.158-.69.237-1.441.237-2.232 0-.288-.017-.602-.052-.933-.034-.333-.096-.669-.183-.997"/>
        <g transform="translate(15.726 3.093)">
            <mask id="wmotz4vr6b" fill="#fff">
                <use xlink:href="#omnrxk9dga"/>
            </mask>
            <path fill="#FEFEFE" d="M6.431 10.454c-.185.241-.462.455-.823.634-.379.188-.854.345-1.413.467-.475.104-1.01.183-1.592.235.029-.186.064-.375.107-.565.07-.307.161-.61.273-.903.11-.29.245-.565.401-.821.152-.25.33-.47.528-.657.193-.182.414-.328.657-.433.238-.103.508-.155.805-.155.187 0 .362.036.521.107.161.072.302.172.418.296.117.126.21.277.277.45.067.173.101.363.101.566 0 .296-.085.55-.26.779m18.811-6.245c0-.352-.153-.56-.282-.671-.35-.305-.877-.241-.936-.233l-.18.025.024-.004.004-.142c.008-.296.012-.516.012-.657 0-.336-.008-.64-.024-.905-.018-.295-.078-.553-.18-.765-.113-.238-.294-.419-.536-.538C22.7.1 22.004.096 20.766.305c-.583.098-1.271.25-2.045.449l-.242.062.143 1.19.293-.045c.13-.02.266-.038.403-.053.142-.015.28-.03.414-.042.13-.013.251-.021.362-.027.113-.005.21-.007.296-.007.223 0 .399.02.523.06.097.032.167.077.214.138.052.069.087.166.104.29.021.159.032.357.032.588 0 .403-.001.801-.003 1.196-.692.276-4.383 1.697-4.501 1.75-1.143.516-1.753.77-2.073.89.05-.402.104-.728.165-1.09.052-.314.106-.637.164-1.051.147-1.04.33-2.06.545-3.035l.046-.207-.185-.104c-.14-.08-.293-.141-.453-.183-.261-.07-.573-.092-.91-.028-.138.026-.269.073-.389.14-.126.07-.237.165-.33.283-.099.124-.166.278-.202.462-.135.757-.271 1.63-.406 2.596-.129.919-.255 1.933-.374 3.016-.503.653-1.88 1.526-3.12 2.242.024-.14.036-.282.036-.43 0-.41-.09-.784-.268-1.11-.175-.32-.413-.594-.708-.814-.287-.213-.625-.378-1.004-.492-.373-.111-.77-.167-1.18-.167-.611 0-1.193.097-1.727.289-.532.191-1.026.458-1.47.792-.442.333-.841.732-1.188 1.184-.343.447-.639.939-.878 1.46-.238.52-.423 1.074-.549 1.646-.126.574-.19 1.155-.19 1.728 0 .71.112 1.385.332 2.008.221.624.533 1.177.928 1.643.397.468.878.844 1.432 1.115.557.273 1.175.41 1.839.41.386 0 .782-.05 1.177-.152.396-.102.789-.26 1.17-.47.377-.21.745-.474 1.095-.785.35-.312.679-.683.975-1.095.054-.07.082-.152.082-.237 0-.07-.019-.179-.109-.29-.043-.055-.094-.106-.152-.154-.053-.042-.11-.081-.175-.12-.056-.032-.101-.057-.136-.074l-.187-.092-.146.15c-.478.491-.951.85-1.407 1.065-.889.418-1.75.42-2.47.027-.362-.197-.682-.478-.952-.836-.274-.363-.494-.809-.652-1.325-.148-.484-.229-1.025-.24-1.609.865-.083 1.683-.204 2.438-.358.838-.172 1.58-.402 2.206-.685.088-.04.173-.082.256-.125.432-.158 1.136-.522 3.715-2.046.044-.026.102-.056.167-.092.201-.112.59-.328.901-.451l-.01.055c-.026.15-.05.293-.074.584-.042.52-.076 1.042-.102 1.55-.026.513-.047 1.027-.063 1.528-.015.503-.023.997-.023 1.468 0 .856.061 1.579.181 2.147.124.582.302 1.055.53 1.408.241.371.534.635.873.784.323.143.683.215 1.07.215.284 0 .588-.036.905-.108.31-.071.632-.172.96-.3.326-.13.66-.285.995-.462.333-.178.668-.378.996-.594l.145-.096-.018-.173c-.027-.269-.136-.5-.324-.687l-.145-.145-.184.09c-.424.21-.805.364-1.132.457-.736.21-1.308.17-1.672-.06-.21-.133-.37-.322-.494-.578-.131-.276-.225-.62-.278-1.024-.055-.42-.083-.908-.083-1.45 0-.294.005-.642.016-1.036.01-.39.027-.825.05-1.293.023-.46.054-.96.093-1.484l.038-.543c.025-.372.052-.784.083-1.131.766-.423 3.2-1.262 3.7-1.494.284-.131 1.892-.66 3.015-1.027-.007.695-.015 1.39-.026 2.082-.013.829-.031 1.674-.054 2.512-.024.843-.05 1.708-.082 2.595-.036 1.052-.08 2.069-.128 3.02-.049.946-.122 1.839-.217 2.652-.094.81-.22 1.547-.375 2.194-.152.635-.35 1.183-.59 1.629-.228.426-.51.756-.839.98-.323.22-.7.328-1.154.328-.436 0-.847-.11-1.224-.324-.375-.214-.713-.585-1.002-1.102l-.082-.147h-.168c-.213 0-.416.045-.602.133-.176.084-.335.194-.47.326-.139.136-.249.29-.328.457-.083.176-.125.352-.125.523 0 .29.088.57.262.832.164.248.394.466.681.649.278.175.61.317.985.42.373.102.785.154 1.224.154.328 0 .668-.033 1.012-.099.346-.066.697-.177 1.044-.331.346-.154.688-.36 1.018-.61.33-.251.649-.566.946-.937.295-.368.569-.805.815-1.301.246-.495.462-1.068.643-1.704.277-.973.5-2.041.665-3.175.164-1.13.293-2.31.384-3.512.09-1.199.158-2.435.2-3.675.038-1.163.072-2.29.1-3.363v.001c.766-.993 1.483-2.369 1.483-2.892" mask="url(#wmotz4vr6b)"/>
        </g>
    </g>
</svg>
