<?xml version="1.0" encoding="utf-8"?>
<!-- Generator: Adobe Illustrator 24.1.1, SVG Export Plug-In . SVG Version: 6.00 Build 0)  -->
<svg version="1.1" id="Capa_1" xmlns="http://www.w3.org/2000/svg" xmlns:xlink="http://www.w3.org/1999/xlink" x="0px" y="0px"
	 viewBox="0 0 19.9 19.8" style="enable-background:new 0 0 19.9 19.8;" xml:space="preserve">
<style type="text/css">
	.st0{fill-rule:evenodd;clip-rule:evenodd;}
</style>
<g>
	<path class="st0" d="M16.2,15.4c0,0.2-0.1,0.3-0.3,0.3H3c-0.2,0-0.3-0.1-0.3-0.3V7.6c0-0.2,0.1-0.3,0.3-0.3h1.3c0,0,0,0,0,0
		c0-0.1,0.1-0.2,0.2-0.2h0.9c0.1,0,0.2,0.1,0.2,0.2l0,0h7.8c0,0,0,0,0,0c0-0.1,0.1-0.2,0.2-0.2h0.9c0.1,0,0.2,0.1,0.2,0.2
		c0,0,0,0,0,0h1.3c0.2,0,0.3,0.1,0.3,0.3V15.4z M7.1,5.6c0-0.4,0.3-0.7,0.7-0.7H11c0.4,0,0.7,0.3,0.7,0.7v1.3h-0.7v-1
		c0-0.2-0.2-0.4-0.4-0.4H8.1c-0.2,0-0.4,0.2-0.4,0.4v1H7.1L7.1,5.6L7.1,5.6z M9.9,0C4.4,0,0,4.4,0,9.9v9.9h9.9
		c5.5,0,9.9-4.4,9.9-9.9C19.8,4.4,15.4,0,9.9,0z"/>
</g>
</svg>
